<svg version="1.1" id="Layer_1" xmlns="http://www.w3.org/2000/svg" xmlns:xlink="http://www.w3.org/1999/xlink" x="0px" y="0px"
	 width="100%" viewBox="0 0 1024 400" enable-background="new 0 0 1024 400" xml:space="preserve">
<path fill="#000000" opacity="1.000000" stroke="none" 
	d="
M488.183533,166.460175 
	C486.514679,176.393158 483.110321,179.117691 473.385681,179.360718 
	C465.586487,179.555634 457.725098,178.349915 449.993134,180.254852 
	C449.246704,180.438766 448.293640,180.297592 447.862701,181.731628 
	C451.579620,181.731628 455.187103,181.921524 458.765900,181.682144 
	C462.965881,181.401215 464.318817,183.232147 464.258270,187.259735 
	C464.053009,200.922134 464.224335,214.591293 463.919281,228.250443 
	C463.819305,232.729004 464.792358,234.757462 469.788330,235.119232 
	C475.755035,235.551285 481.900696,235.866852 487.596161,238.626541 
	C462.463989,237.674377 437.364532,238.570404 412.146912,238.196564 
	C412.489471,236.166031 413.839722,236.069733 414.863617,235.867065 
	C422.765594,234.302963 426.379059,228.668503 427.532745,221.517853 
	C432.058899,193.465012 436.292908,165.364944 440.591553,137.275696 
	C440.841309,135.643738 441.189484,133.774765 440.657471,132.321579 
	C438.930023,127.603188 441.328857,126.824348 445.182526,126.876816 
	C450.846924,126.953926 456.515167,126.807983 462.177673,126.937218 
	C465.085571,127.003586 467.386749,127.804573 465.129211,131.467392 
	C464.013428,133.277802 464.523590,135.361862 464.359131,137.334595 
	C464.084747,140.626053 465.647247,141.785767 468.802704,141.687683 
	C478.937561,141.372604 489.132904,142.532745 499.192657,140.370041 
	C499.949615,140.207291 500.771942,140.348663 501.505951,140.348663 
	C503.670776,147.174362 497.674377,154.174164 491.763092,155.351013 
	C484.301453,156.836548 476.810425,155.946411 469.338165,156.222092 
	C462.895020,156.459793 456.343689,155.385147 450.031799,158.655106 
	C453.492920,158.655106 456.954590,158.691574 460.415009,158.642227 
	C462.700897,158.609634 464.407867,159.147369 464.306335,161.903244 
	C464.184418,165.211411 466.317749,165.689560 468.920441,165.591949 
	C473.903534,165.405029 478.907532,165.959717 483.873901,164.925720 
	C485.314117,164.625854 487.256531,163.767075 488.183533,166.460175 
z"/>
<path fill="#000000" opacity="1.000000" stroke="none" 
	d="
M594.777344,178.681198 
	C597.068420,186.246582 597.224304,193.187012 592.204468,199.414154 
	C589.484924,202.787766 585.248108,203.833969 581.203186,206.300354 
	C583.142334,211.908020 584.730713,217.618164 588.505432,222.428543 
	C590.135010,224.505173 592.297241,225.532516 594.897888,225.936035 
	C597.733887,226.376068 599.499634,227.959900 599.028259,231.079910 
	C598.567688,234.128525 596.289551,234.467087 593.769043,234.350327 
	C588.400452,234.101608 584.276489,231.620972 581.097473,227.385788 
	C577.427307,222.496246 575.418945,216.825195 573.710327,211.080200 
	C571.871582,204.897476 567.023010,207.544540 563.318909,207.409851 
	C559.333984,207.264923 560.493408,210.701538 560.343384,212.980927 
	C560.201538,215.137939 560.471069,217.325745 560.279053,219.474930 
	C559.941589,223.251831 561.007446,225.654663 565.286987,225.678406 
	C568.086548,225.693939 569.041870,227.510941 568.918823,230.000488 
	C568.796265,232.482712 567.268799,233.401169 564.897278,233.380585 
	C559.565186,233.334274 554.232361,233.368347 548.899841,233.367844 
	C546.720032,233.367630 544.866211,232.958389 544.757751,230.211441 
	C544.672729,228.058762 544.913086,226.057022 547.568726,225.740646 
	C550.847168,225.350082 550.888855,223.013504 550.889648,220.594208 
	C550.894104,207.096085 550.876953,193.597900 550.909119,180.099854 
	C550.915222,177.527390 550.464172,175.581406 547.359802,175.094635 
	C544.811523,174.695038 544.644409,172.541199 544.759216,170.415604 
	C544.884460,168.095352 546.386108,167.141159 548.402771,167.133224 
	C559.383301,167.090012 570.414795,166.115646 581.308167,168.134460 
	C587.338562,169.252029 592.125000,172.377151 594.777344,178.681198 
M560.462463,196.873093 
	C560.729797,197.936996 561.392944,198.725784 562.473206,198.793259 
	C568.763306,199.186096 575.054199,199.552567 581.051453,196.913116 
	C585.327515,195.031189 587.547974,191.627884 587.421631,187.141968 
	C587.282043,182.182251 585.183533,178.271301 579.981812,176.539291 
	C574.955322,174.865631 569.814697,175.490112 564.705811,175.258484 
	C561.556274,175.115677 560.176697,176.308151 560.279968,179.582581 
	C560.452209,185.048050 560.350830,190.522156 560.462463,196.873093 
z"/>
<path fill="#000000" opacity="1.000000" stroke="none" 
	d="
M649.366333,170.446472 
	C656.019226,175.082535 658.682251,181.666290 659.743286,188.894089 
	C661.099487,198.132126 661.351746,207.465591 658.907654,216.581650 
	C655.116028,230.723526 642.720520,237.630493 626.417542,234.977249 
	C612.813782,232.763306 605.441284,225.052139 603.934143,210.367981 
	C603.174927,202.970215 603.052063,195.458252 604.535522,188.021347 
	C607.396606,173.678497 615.628357,166.429092 630.386475,165.913589 
	C636.928040,165.685089 643.307434,166.760056 649.366333,170.446472 
M640.853882,176.445511 
	C627.661438,171.411072 617.117493,176.533051 613.855652,189.675262 
	C612.026123,197.046890 611.846863,204.489105 613.672668,211.906433 
	C616.261169,222.422287 622.552124,227.081299 633.607910,226.746155 
	C642.587891,226.473938 648.707092,220.721909 650.644897,210.825409 
	C651.480896,206.556061 652.079468,202.244293 651.584778,197.928696 
	C650.650513,189.778885 649.741516,181.521378 640.853882,176.445511 
z"/>
<path fill="#000000" opacity="1.000000" stroke="none" 
	d="
M524.255981,221.604584 
	C523.477600,216.476059 520.987854,214.404053 516.005066,214.967361 
	C512.389954,215.376053 508.692505,215.058182 505.031769,215.059830 
	C495.528564,215.064102 495.480804,215.105896 494.032318,224.969086 
	C495.454681,226.421478 497.457825,225.800797 499.159882,226.273575 
	C501.217041,226.844971 502.311310,227.970383 502.216614,230.165421 
	C502.118835,232.432281 500.917053,233.446411 498.706451,233.435928 
	C493.224640,233.409927 487.742767,233.405960 482.260986,233.378448 
	C480.455841,233.369400 478.885712,232.960205 478.745422,230.750031 
	C478.638367,229.062790 478.526428,227.185013 480.637817,226.660065 
	C484.001678,225.823685 484.695557,223.090546 485.557220,220.372955 
	C490.530518,204.687241 495.626434,189.039307 500.444946,173.306305 
	C501.899841,168.555817 504.588562,166.617920 509.521576,166.683151 
	C514.413940,166.747864 517.130920,168.709213 518.577332,173.429550 
	C523.396118,189.156174 528.484741,204.799988 533.434387,220.486755 
	C534.291748,223.204056 534.880676,225.883560 538.444153,226.510712 
	C540.712341,226.909882 540.832031,228.952744 540.536621,230.910400 
	C540.220398,233.006851 538.833069,233.517685 536.950134,233.496017 
	C531.792419,233.436691 526.634094,233.429047 521.476013,233.418884 
	C519.356873,233.414703 517.364929,233.188187 517.009216,230.543915 
	C516.644958,227.835587 518.119812,226.504929 520.631714,226.181656 
	C523.145203,225.858185 525.438843,225.437180 524.255981,221.604584 
M516.715271,196.641876 
	C514.315735,189.396454 512.687805,181.881622 509.230621,174.089462 
	C505.629822,185.483475 501.875702,195.875992 499.078461,207.425003 
	C506.242676,206.758163 512.723572,207.897995 519.630615,206.572800 
	C518.598206,203.105377 517.751343,200.261200 516.715271,196.641876 
z"/>
<path fill="#000000" opacity="1.000000" stroke="none" 
	d="
M462.197388,123.023018 
	C461.953064,125.578117 460.518799,126.160370 458.674591,126.192978 
	C456.676697,126.228302 454.678223,126.259689 452.680145,126.252785 
	C444.747772,126.225380 442.600220,123.974907 443.041901,116.019081 
	C443.153046,114.017403 444.829468,112.883110 446.081635,111.612701 
	C448.051361,109.614250 451.533234,109.485291 452.229584,105.680557 
	C452.515503,104.118446 455.232452,104.684578 455.421509,106.478134 
	C455.688904,109.014526 457.311707,109.829788 459.098480,110.649475 
	C465.042938,113.376495 462.235535,118.341019 462.197388,123.023018 
M451.878754,118.967972 
	C448.967560,118.050926 449.257477,120.096565 449.566040,121.696564 
	C450.215149,125.061943 452.947723,123.679451 454.792786,123.513283 
	C457.124451,123.303284 456.952179,121.141388 456.495514,119.617966 
	C455.739624,117.096565 454.098358,117.310242 451.878754,118.967972 
z"/>
</svg>